PathFileType	4	(X/Y/Z)	18_2_14_p0_0-251.trc
DataRate	CameraRate	NumFrames	NumMarkers	Units	OrigDataRate	OrigDataStartFrame	OrigNumFrames
60.0	60.0	5	27	m	60.0	0	252
Frame#	Time	RHip			RKnee			RAnkle			RBigToe			RSmallToe			RHeel			LHip			LKnee			LAnkle			LBigToe			LSmallToe			LHeel			Neck			Head			Nose			RShoulder			RElbow			RWrist			RThumb			RIndex			RPinky			LShoulder			LElbow			LWrist			LThumb			LIndex			LPinky			
		X1	Y1	Z1	X2	Y2	Z2	X3	Y3	Z3	X4	Y4	Z4	X5	Y5	Z5	X6	Y6	Z6	X7	Y7	Z7	X8	Y8	Z8	X9	Y9	Z9	X10	Y10	Z10	X11	Y11	Z11	X12	Y12	Z12	X13	Y13	Z13	X14	Y14	Z14	X15	Y15	Z15	X16	Y16	Z16	X17	Y17	Z17	X18	Y18	Z18	X19	Y19	Z19	X20	Y20	Z20	X21	Y21	Z21	X22	Y22	Z22	X23	Y23	Z23	X24	Y24	Z24	X25	Y25	Z25	X26	Y26	Z26	X27	Y27	Z27	
0	0.0	0.2503098008550302	0.43172278243553314	1.2101065303669003	0.22419149160318136	0.4611713359210638	1.6318618903507216	0.22951955967513607	0.5126080634197555	2.0041062286709947	0.21359417296490804	0.3273927711120709	2.0124493359909303	0.2775029388878064	0.38328172753754963	2.0283289299593217	0.21875178729578837	0.6479423143885947	2.09600233987358	0.0396531138461395	0.43568781898202735	1.2115342708570949	0.039791984042882145	0.4953707041502365	1.6554494032988911	0.03672785352812406	0.5698735470294496	2.035101060528643	0.06926532079289494	0.39365509362018475	2.037360454439331	0.004076149684809532	0.4394298241478596	2.055064023980471	0.04218756059200185	0.6123490466013122	2.060078466590509	0.16364953213267996	0.36132736067185106	0.6852267438624107	0.1724382577843872	0.31113895391779245	0.4651739530090672	0.17204634223644993	0.26672284013471	0.5779389271663341	0.29996123574340156	0.32547023116715	0.7564540510253046	0.30485572028118924	0.12005346302763059	0.8753171974538451	0.19813020014490101	-0.09037252247471696	0.8932537039865256	0.15105704458756727	-0.1309541729970111	0.9119843983784991	0.14518704359595405	-0.14420425928189595	0.9234104452339342	0.1682995181500931	-0.21248679402814843	0.9350587037288786	0.024522955908831794	0.3581164232692795	0.7504793042622122	0.000764517707646307	0.08134479559277062	0.8380362951971072	0.09812057746918955	-0.10262452357439071	0.8750443320949948	0.17433089254211004	-0.14223136236577624	0.9019915274995004	0.17293593992411538	-0.16271487023724573	0.9221649016555356	0.14303844940511531	-0.1718339574086494	0.9373939709974501
1	0.016666666666666666	0.2505014985697159	0.42841741850007165	1.2175808234326164	0.2295156358959904	0.4429664201815229	1.626348899416254	0.23054509205672521	0.511096136629602	1.9991699307114403	0.20946017016783625	0.34247222889057527	2.020230433273513	0.2775303626865478	0.3838855673421029	2.0286621582696798	0.22317146898972523	0.6325790156975901	2.0840196637296895	0.04073648373203795	0.43161186743591057	1.2156201184520836	0.04100268066095426	0.4919160811292519	1.6556774355565327	0.03227775726723809	0.5679270672485819	2.0345186387126875	0.0666246244213358	0.3805610332121769	2.031424903660402	0.009352360781213891	0.4239316060033356	2.047862385259091	0.03658743659900648	0.6307520185095685	2.068762366362195	0.16367952039106548	0.36103442077336345	0.6852385779301441	0.17245870659809884	0.3105034303582772	0.4652551770030555	0.17213599236309762	0.266640322736345	0.5778791207238233	0.3001951448290713	0.32405432570983794	0.7599237571518754	0.30421759349171634	0.13333436311807095	0.856128016131652	0.2055311219494429	-0.10467131173082991	0.8732606698917348	0.14860069606120846	-0.13958856016923754	0.8674736057278233	0.13789778858150908	-0.1486606377807737	0.8898584768446822	0.165499727558505	-0.19319667337358382	0.9280326302030781	0.0282993842016014	0.3614728252745388	0.7470001231087287	0.001604647375677436	0.07924136091647284	0.8272934657666782	0.10091230736637169	-0.09597961854755048	0.8686328441618647	0.1744631884689889	-0.1347212102965732	0.8793948588901379	0.16839065091854272	-0.1499296813847522	0.9000399240368907	0.14835654525029468	-0.18314083298250414	0.9245005074121561
2	0.03333333333333333	0.25108578289345257	0.4295240341740784	1.2093256332245392	0.22954277879783389	0.443075461658313	1.6262794149859832	0.2271060285389102	0.49714498181814026	1.9929282395372852	0.20940651691463577	0.34237233380547427	2.020042011729862	0.2774439315899449	0.3836653723685685	2.0283664529060754	0.21936554274985415	0.6173239321160697	2.0773061493643996	0.04066165496502707	0.43371701948016905	1.2118843107597317	0.0415797983614129	0.49287305681406823	1.647845293626842	0.03195566667530556	0.5700779899088624	2.030927789091338	0.06672081165071582	0.3803427180889311	2.031244001988471	0.009395921474363996	0.4237409223869127	2.047632360266649	0.03660382606771222	0.6304280807520191	2.068638428865662	0.16379738268759952	0.36124056621326317	0.6852529104094384	0.17243736051383673	0.31054005976130666	0.4652675714068608	0.17222385044958324	0.2667332757477738	0.577804893297738	0.3002754409701396	0.32442154853008476	0.7526030596265643	0.306859213443628	0.13385332603156225	0.849652059607466	0.2077727976576015	-0.09487514390008597	0.8596739714352081	0.15509380823386298	-0.11569115307137838	0.8662648427137462	0.14239779607075276	-0.15400934689826767	0.88143368861876	0.1639022732506487	-0.19597373795848844	0.9182624222764253	0.031040965413990863	0.37494807194725277	0.7438659572677829	0.0018056050054364719	0.09072429752796897	0.8246715873845639	0.09771823507445448	-0.11258415591086801	0.8444198118431695	0.16821254767499966	-0.1349383472688831	0.8702432672310159	0.16733350735210512	-0.14159244109885405	0.8887884001941094	0.14829336454143296	-0.17137454681291964	0.9020969158694115
3	0.05	0.25036186521634485	0.4318130800174928	1.2100869121578992	0.22611524683478668	0.4294189788978196	1.6219542784418026	0.22950312432051384	0.5125198086048462	2.004001464864202	0.20953358636775277	0.3413279926758464	2.0193926014725547	0.2774071887054435	0.38288033208571964	2.0279558234995743	0.2246134527783546	0.6336153087215879	2.093979897225814	0.04059377891833115	0.43559772976069666	1.2080993643097817	0.040668146818411334	0.494410785690228	1.6519689610566315	0.03200457768830737	0.5701601549776362	2.0309307724284813	0.06675928649529757	0.37992654517841695	2.0309052853257126	0.009390060814553307	0.4234484843108228	2.0471719872428906	0.03741251877679415	0.6337222291851561	2.0739585538444945	0.16789309946269815	0.3485277843795997	0.6846838964061738	0.1725917392079103	0.310537803213928	0.46525321833397326	0.1723540013751409	0.2667274164562826	0.5775879181037377	0.30025620912348383	0.32464590448403996	0.7522974216514595	0.30751365480616677	0.12397531750535735	0.8392954679147229	0.20757101203008893	-0.10049254934286037	0.8463589228880563	0.14450329189152503	-0.13361083343694002	0.8556544088622542	0.13678791627974005	-0.16742163629066337	0.8606012444816368	0.16704651933513642	-0.2253939201398872	0.882499557628948	0.031020988375373214	0.3749829164381784	0.7440781854508219	-0.00422394717001973	0.09221007042311634	0.8149186755429668	0.09654090906523248	-0.09276905314376997	0.8332259852249638	0.16401703800374304	-0.12638284615181974	0.8589527802306117	0.1662109994917119	-0.14262406786235157	0.8758711126973479	0.14458642214823034	-0.17297713793475367	0.8846067462709949
4	0.06666666666666667	0.25094061050197347	0.43110322810330165	1.2055230632806553	0.22952422923116314	0.44314860827320757	1.6266462675016642	0.2305813484096137	0.5114607143942596	1.999364229557529	0.2100700032863793	0.3402658472002782	2.014767322589914	0.27717998589584925	0.38321257297954736	2.0279405035768474	0.22427117397160395	0.6361375036978972	2.0902858200533863	0.03963120806174977	0.4380079569703051	1.2083327223692357	0.040656563332091285	0.49407232132920653	1.6517677027785853	0.03642087940595775	0.5719904204632962	2.0314832170734705	0.07201605666814255	0.3845097357422906	2.0331288103119842	0.00957107292201081	0.42329292220715337	2.047515609889102	0.042102088311233896	0.6132288782387918	2.060449935953743	0.1637620237717806	0.3604924070761458	0.6851685601726517	0.17256962382021593	0.3103491278049196	0.46523280720551213	0.17634617964610566	0.25478218245548806	0.5776546247471148	0.29615148107641504	0.3389154204095656	0.7496530589203553	0.3070868929181567	0.146410840140164	0.8334237093621332	0.2074950930667896	-0.09257379894292221	0.8343554287101475	0.14185969314485103	-0.13268840829184522	0.8475261379957058	0.14000399502614894	-0.1617961808302275	0.8543721026864923	0.16880604145833727	-0.2161890643768633	0.8666977721118049	0.030995965515611894	0.3749699732467694	0.744215210203752	-0.00011122555744184643	0.07957608048874636	0.8098098960808062	0.09488222890424237	-0.10366728314943757	0.8252598394428189	0.1587275150915735	-0.127575706308616	0.8465250263742687	0.16219491128542826	-0.14727907860663872	0.8553549692596194	0.1502742736241406	-0.16555658186095493	0.8744455101447753
